<mxfile host="app.diagrams.net" modified="2024-06-13T12:47:00.796Z" agent="Mozilla/5.0 (Windows NT 10.0; Win64; x64) AppleWebKit/537.36 (KHTML, like Gecko) Chrome/125.0.0.0 Safari/537.36" etag="A0_uuKS6QBxhKgLAtZsq" version="24.5.4" type="github">
  <diagram name="Page-1" id="e7e014a7-5840-1c2e-5031-d8a46d1fe8dd">
    <mxGraphModel dx="2219" dy="530" grid="1" gridSize="10" guides="1" tooltips="1" connect="1" arrows="1" fold="1" page="1" pageScale="1" pageWidth="1169" pageHeight="826" background="none" math="0" shadow="0">
      <root>
        <mxCell id="0" />
        <mxCell id="1" parent="0" />
        <mxCell id="bC7d9cxIkrSsYr0jQrIC-1" value="" style="shape=image;html=1;verticalAlign=top;verticalLabelPosition=bottom;labelBackgroundColor=#ffffff;imageAspect=0;aspect=fixed;image=https://cdn1.iconfinder.com/data/icons/unicons-line-vol-5/24/robot-128.png" vertex="1" parent="1">
          <mxGeometry x="-590" y="181" width="60" height="60" as="geometry" />
        </mxCell>
        <mxCell id="bC7d9cxIkrSsYr0jQrIC-2" value="" style="endArrow=classic;html=1;rounded=0;" edge="1" parent="1">
          <mxGeometry width="50" height="50" relative="1" as="geometry">
            <mxPoint x="-518" y="218" as="sourcePoint" />
            <mxPoint x="-408" y="218" as="targetPoint" />
          </mxGeometry>
        </mxCell>
        <mxCell id="bC7d9cxIkrSsYr0jQrIC-3" value="执行清洁任务" style="text;html=1;strokeColor=none;fillColor=none;align=center;verticalAlign=middle;whiteSpace=wrap;rounded=0;" vertex="1" parent="1">
          <mxGeometry x="-509" y="192" width="80" height="30" as="geometry" />
        </mxCell>
        <mxCell id="bC7d9cxIkrSsYr0jQrIC-4" value="崩溃信息" style="rounded=0;whiteSpace=wrap;html=1;" vertex="1" parent="1">
          <mxGeometry x="-360" y="71" width="120" height="60" as="geometry" />
        </mxCell>
        <mxCell id="bC7d9cxIkrSsYr0jQrIC-5" value="状态信息" style="rounded=0;whiteSpace=wrap;html=1;" vertex="1" parent="1">
          <mxGeometry x="-360" y="341" width="120" height="60" as="geometry" />
        </mxCell>
        <mxCell id="bC7d9cxIkrSsYr0jQrIC-6" value="运行时数据" style="rounded=0;whiteSpace=wrap;html=1;" vertex="1" parent="1">
          <mxGeometry x="-360" y="201" width="120" height="60" as="geometry" />
        </mxCell>
        <mxCell id="bC7d9cxIkrSsYr0jQrIC-7" value="" style="endArrow=classic;html=1;rounded=0;" edge="1" parent="1">
          <mxGeometry width="50" height="50" relative="1" as="geometry">
            <mxPoint x="-212.18000000000006" y="107" as="sourcePoint" />
            <mxPoint x="-50" y="107" as="targetPoint" />
          </mxGeometry>
        </mxCell>
        <mxCell id="bC7d9cxIkrSsYr0jQrIC-8" value="core 、mini_dump" style="text;html=1;strokeColor=none;fillColor=none;align=center;verticalAlign=middle;whiteSpace=wrap;rounded=0;" vertex="1" parent="1">
          <mxGeometry x="-210" y="75" width="160" height="30" as="geometry" />
        </mxCell>
        <mxCell id="bC7d9cxIkrSsYr0jQrIC-9" value="" style="endArrow=classic;html=1;rounded=0;" edge="1" parent="1">
          <mxGeometry width="50" height="50" relative="1" as="geometry">
            <mxPoint x="-202.18000000000006" y="234" as="sourcePoint" />
            <mxPoint x="-40" y="234" as="targetPoint" />
          </mxGeometry>
        </mxCell>
        <mxCell id="bC7d9cxIkrSsYr0jQrIC-10" value="Bag、Log、Datas" style="edgeLabel;html=1;align=center;verticalAlign=middle;resizable=0;points=[];" vertex="1" connectable="0" parent="bC7d9cxIkrSsYr0jQrIC-9">
          <mxGeometry x="0.1939" y="-2" relative="1" as="geometry">
            <mxPoint x="-18" y="-2" as="offset" />
          </mxGeometry>
        </mxCell>
        <mxCell id="bC7d9cxIkrSsYr0jQrIC-11" value="" style="endArrow=classic;html=1;rounded=0;" edge="1" parent="1">
          <mxGeometry width="50" height="50" relative="1" as="geometry">
            <mxPoint x="-200" y="370.5" as="sourcePoint" />
            <mxPoint x="-37.819999999999936" y="370.5" as="targetPoint" />
          </mxGeometry>
        </mxCell>
        <mxCell id="bC7d9cxIkrSsYr0jQrIC-12" value="CPU、内存、节点" style="edgeLabel;html=1;align=center;verticalAlign=middle;resizable=0;points=[];" vertex="1" connectable="0" parent="bC7d9cxIkrSsYr0jQrIC-11">
          <mxGeometry x="0.2186" y="3" relative="1" as="geometry">
            <mxPoint x="-19" y="3" as="offset" />
          </mxGeometry>
        </mxCell>
        <mxCell id="bC7d9cxIkrSsYr0jQrIC-13" value="APM平台" style="rounded=1;whiteSpace=wrap;html=1;" vertex="1" parent="1">
          <mxGeometry x="260" y="71" width="120" height="341" as="geometry" />
        </mxCell>
        <mxCell id="bC7d9cxIkrSsYr0jQrIC-14" value="" style="endArrow=classic;html=1;rounded=0;" edge="1" parent="1">
          <mxGeometry width="50" height="50" relative="1" as="geometry">
            <mxPoint x="140" y="241" as="sourcePoint" />
            <mxPoint x="240" y="241" as="targetPoint" />
          </mxGeometry>
        </mxCell>
        <mxCell id="bC7d9cxIkrSsYr0jQrIC-15" value="崩溃分析" style="rounded=0;whiteSpace=wrap;html=1;" vertex="1" parent="1">
          <mxGeometry x="480" y="71" width="120" height="60" as="geometry" />
        </mxCell>
        <mxCell id="bC7d9cxIkrSsYr0jQrIC-16" value="应用性能分析" style="rounded=0;whiteSpace=wrap;html=1;" vertex="1" parent="1">
          <mxGeometry x="480" y="211.5" width="120" height="60" as="geometry" />
        </mxCell>
        <mxCell id="bC7d9cxIkrSsYr0jQrIC-17" value="资源分析" style="rounded=0;whiteSpace=wrap;html=1;" vertex="1" parent="1">
          <mxGeometry x="480" y="352" width="120" height="60" as="geometry" />
        </mxCell>
        <mxCell id="bC7d9cxIkrSsYr0jQrIC-18" value="Actor" style="shape=umlActor;verticalLabelPosition=bottom;verticalAlign=top;html=1;outlineConnect=0;" vertex="1" parent="1">
          <mxGeometry x="50" y="30" width="25" height="40" as="geometry" />
        </mxCell>
        <mxCell id="bC7d9cxIkrSsYr0jQrIC-19" value="Actor" style="shape=umlActor;verticalLabelPosition=bottom;verticalAlign=top;html=1;outlineConnect=0;" vertex="1" parent="1">
          <mxGeometry x="307.5" y="31" width="25" height="40" as="geometry" />
        </mxCell>
        <mxCell id="bC7d9cxIkrSsYr0jQrIC-20" value="Aiot平台" style="shape=cylinder3;whiteSpace=wrap;html=1;boundedLbl=1;backgroundOutline=1;size=15;" vertex="1" parent="1">
          <mxGeometry y="71" width="120" height="341" as="geometry" />
        </mxCell>
        <mxCell id="bC7d9cxIkrSsYr0jQrIC-21" value="webviz工具" style="rounded=0;whiteSpace=wrap;html=1;" vertex="1" parent="1">
          <mxGeometry x="780" y="71" width="90" height="151" as="geometry" />
        </mxCell>
        <mxCell id="bC7d9cxIkrSsYr0jQrIC-22" value="vscode工具" style="rounded=0;whiteSpace=wrap;html=1;" vertex="1" parent="1">
          <mxGeometry x="780" y="252" width="90" height="159" as="geometry" />
        </mxCell>
        <mxCell id="bC7d9cxIkrSsYr0jQrIC-23" value="" style="endArrow=classic;html=1;rounded=0;" edge="1" parent="1">
          <mxGeometry width="50" height="50" relative="1" as="geometry">
            <mxPoint x="400" y="211.5" as="sourcePoint" />
            <mxPoint x="450" y="161.5" as="targetPoint" />
          </mxGeometry>
        </mxCell>
        <mxCell id="bC7d9cxIkrSsYr0jQrIC-24" value="" style="endArrow=classic;html=1;rounded=0;" edge="1" parent="1">
          <mxGeometry width="50" height="50" relative="1" as="geometry">
            <mxPoint x="400" y="241" as="sourcePoint" />
            <mxPoint x="450" y="241" as="targetPoint" />
          </mxGeometry>
        </mxCell>
        <mxCell id="bC7d9cxIkrSsYr0jQrIC-25" value="" style="endArrow=classic;html=1;rounded=0;" edge="1" parent="1">
          <mxGeometry width="50" height="50" relative="1" as="geometry">
            <mxPoint x="400" y="271.5" as="sourcePoint" />
            <mxPoint x="440" y="330.5" as="targetPoint" />
          </mxGeometry>
        </mxCell>
        <mxCell id="bC7d9cxIkrSsYr0jQrIC-26" value="rosbag" style="endArrow=classic;html=1;rounded=0;" edge="1" parent="1">
          <mxGeometry width="50" height="50" relative="1" as="geometry">
            <mxPoint x="630" y="231" as="sourcePoint" />
            <mxPoint x="730" y="181" as="targetPoint" />
          </mxGeometry>
        </mxCell>
        <mxCell id="bC7d9cxIkrSsYr0jQrIC-27" value="" style="endArrow=classic;html=1;rounded=0;" edge="1" parent="1">
          <mxGeometry width="50" height="50" relative="1" as="geometry">
            <mxPoint x="630" y="271" as="sourcePoint" />
            <mxPoint x="720" y="311" as="targetPoint" />
          </mxGeometry>
        </mxCell>
        <mxCell id="bC7d9cxIkrSsYr0jQrIC-28" value="log、datas" style="edgeLabel;html=1;align=center;verticalAlign=middle;resizable=0;points=[];" vertex="1" connectable="0" parent="bC7d9cxIkrSsYr0jQrIC-27">
          <mxGeometry x="-0.4356" y="1" relative="1" as="geometry">
            <mxPoint x="23" y="10" as="offset" />
          </mxGeometry>
        </mxCell>
      </root>
    </mxGraphModel>
  </diagram>
</mxfile>
